<svg width="900" height="760" viewBox="0 0 900 760" fill="none" xmlns="http://www.w3.org/2000/svg">
  <rect width="900" height="760" rx="40" fill="#F2F1EF"/>
  <rect x="28" y="28" width="844" height="704" rx="30" fill="#302728"/>
  <rect x="60" y="60" width="780" height="640" rx="26" fill="#F2F1EF"/>
  <rect x="88" y="88" width="724" height="146" rx="24" fill="#AE0000"/>
  <text x="124" y="152" fill="#F2F1EF" font-family="Arial, sans-serif" font-size="50" font-weight="700">BLACKTHREADS</text>
  <text x="124" y="198" fill="#F2F1EF" font-family="Arial, sans-serif" font-size="24">Corporate gifting and custom merchandise</text>
  <rect x="88" y="264" width="226" height="168" rx="26" fill="#A9A5A2"/>
  <text x="114" y="320" fill="#171314" font-family="Arial, sans-serif" font-size="26" font-weight="700">APPAREL</text>
  <text x="114" y="358" fill="#171314" font-family="Arial, sans-serif" font-size="18">Round neck</text>
  <text x="114" y="384" fill="#171314" font-family="Arial, sans-serif" font-size="18">Collar tees</text>
  <text x="114" y="410" fill="#171314" font-family="Arial, sans-serif" font-size="18">Jackets &amp; zippers</text>
  <rect x="336" y="264" width="226" height="168" rx="26" fill="#807C79"/>
  <text x="362" y="320" fill="#F2F1EF" font-family="Arial, sans-serif" font-size="26" font-weight="700">TECH</text>
  <text x="362" y="358" fill="#F2F1EF" font-family="Arial, sans-serif" font-size="18">Speakers</text>
  <text x="362" y="384" fill="#F2F1EF" font-family="Arial, sans-serif" font-size="18">Earphones</text>
  <text x="362" y="410" fill="#F2F1EF" font-family="Arial, sans-serif" font-size="18">Power banks</text>
  <rect x="584" y="264" width="228" height="168" rx="26" fill="#302728"/>
  <text x="610" y="320" fill="#F2F1EF" font-family="Arial, sans-serif" font-size="26" font-weight="700">GIFTING</text>
  <text x="610" y="358" fill="#F2F1EF" font-family="Arial, sans-serif" font-size="18">Bottles &amp; mugs</text>
  <text x="610" y="384" fill="#F2F1EF" font-family="Arial, sans-serif" font-size="18">Gift boxes</text>
  <text x="610" y="410" fill="#F2F1EF" font-family="Arial, sans-serif" font-size="18">Seasonal products</text>
  <rect x="88" y="462" width="474" height="188" rx="26" fill="#302728"/>
  <text x="120" y="522" fill="#F2F1EF" font-family="Arial, sans-serif" font-size="28" font-weight="700">PRINTING TECHNIQUES</text>
  <text x="120" y="564" fill="#F2F1EF" font-family="Arial, sans-serif" font-size="20">Screen Printing</text>
  <text x="312" y="564" fill="#F2F1EF" font-family="Arial, sans-serif" font-size="20">HQ Embroidery</text>
  <text x="120" y="598" fill="#F2F1EF" font-family="Arial, sans-serif" font-size="20">3D Embroidery</text>
  <text x="312" y="598" fill="#F2F1EF" font-family="Arial, sans-serif" font-size="20">DTF Printing</text>
  <text x="120" y="632" fill="#F2F1EF" font-family="Arial, sans-serif" font-size="20">Puff Printing</text>
  <text x="312" y="632" fill="#F2F1EF" font-family="Arial, sans-serif" font-size="20">3D Printing</text>
  <rect x="590" y="462" width="222" height="188" rx="26" fill="#AE0000"/>
  <text x="620" y="530" fill="#F2F1EF" font-family="Arial, sans-serif" font-size="48" font-weight="700">200+</text>
  <text x="620" y="568" fill="#F2F1EF" font-family="Arial, sans-serif" font-size="20">Clients served</text>
  <text x="620" y="618" fill="#F2F1EF" font-family="Arial, sans-serif" font-size="34" font-weight="700">1M+</text>
  <text x="620" y="652" fill="#F2F1EF" font-family="Arial, sans-serif" font-size="20">Happy customers</text>
</svg>
